<svg xmlns="http://www.w3.org/2000/svg" xmlns:xlink="http://www.w3.org/1999/xlink" fill="none" version="1.1" width="18" height="18" viewBox="0 0 18 18"><clipPath id="master_svg0_1_356"><rect x="0" y="0" width="18" height="18" rx="0"/></clipPath><g clip-path="url(#master_svg0_1_356)" style="mix-blend-mode:passthrough"><g><g style="mix-blend-mode:passthrough"><path d="M9.375000234375,0.62147709375L16.068340234375,4.48585609375Q16.153840234375,4.5352260937499995,16.223640234375,4.6050460937499995Q16.293440234374998,4.6748660937499995,16.342840234375,4.760376093750001Q16.392240234375002,4.84588609375,16.417740234375,4.94126609375Q16.443340234375,5.036636093749999,16.443340234375,5.135376093750001L16.443340234375,12.86409609375Q16.443340234375,12.96289609375,16.417740234375,13.05829609375Q16.392240234375002,13.15359609375,16.342840234375,13.23909609375Q16.293440234374998,13.32469609375,16.223640234375,13.39449609375Q16.153840234375,13.46429609375,16.068340234375,13.51369609375L9.375000234375,17.37799609375Q9.289490234375,17.42739609375,9.194110234375,17.45299609375Q9.098740234375,17.47849609375,9.000000234375001,17.47849609375Q8.901260234375,17.47849609375,8.805890234375,17.45299609375Q8.710510234375,17.42739609375,8.625000234375001,17.37799609375L1.931698234375,13.51369609375Q1.8461872343749999,13.46429609375,1.776368234375,13.39449609375Q1.706548234375,13.32469609375,1.657179234375,13.23909609375Q1.607809234375,13.15359609375,1.582253234375,13.05829609375Q1.556698234375,12.96289609375,1.556698234375,12.86409609375L1.556697234375,5.135376093750001Q1.556697234375,5.036636093749999,1.582253234375,4.94126609375Q1.607809234375,4.84588609375,1.657178234375,4.760376093750001Q1.706548234375,4.6748660937499995,1.7763672343749999,4.6050460937499995Q1.8461872343749999,4.5352260937499995,1.931697234375,4.48585609375L8.625000234375001,0.62147709375Q8.710510234375,0.57210709375,8.805890234375,0.54655209375Q8.901260234375,0.52099609375,9.000000234375001,0.52099609375Q9.098740234375,0.52099609375,9.194110234375,0.54655209375Q9.289490234375,0.57210709375,9.375000234375,0.62147709375L9.375000234375,0.62147709375ZM8.625000234375001,1.92051509375L9.000000234375001,1.270996093750001L9.375000234375,1.92051509375L2.681700234375,5.78489609375L2.306700234375,5.135376093750001L3.056700234375,5.135376093750001L3.056700234375,12.86409609375L2.306700234375,12.86409609375L2.681700234375,12.21459609375L9.375000234375,16.07899609375L9.000000234375001,16.72849609375L8.625000234375001,16.07899609375L15.318340234375,12.21459609375L15.693340234375,12.86409609375L14.943340234375,12.86409609375L14.943340234375,5.135376093750001L15.693340234375,5.135376093750001L15.318340234375,5.78489609375L8.625000234375001,1.92051509375Z" fill="#4E5969" fill-opacity="1"/></g><g style="mix-blend-mode:passthrough"><ellipse cx="9" cy="9" rx="2.5" ry="2.5" fill-opacity="0" stroke-opacity="1" stroke="#4E5969" stroke-width="1.5" fill="none" stroke-dasharray=""/></g></g></g></svg>